<svg width="21" height="21" viewBox="0 0 21 21" fill="none" xmlns="http://www.w3.org/2000/svg">
<mask id="mask0_14706_1294" style="mask-type:alpha" maskUnits="userSpaceOnUse" x="0" y="0" width="21" height="21">
<rect x="0.0715332" y="0.0715637" width="20.2209" height="20.2209" fill="#D9D9D9"/>
</mask>
<g mask="url(#mask0_14706_1294)">
<path d="M11.5721 14.3525L7.86499 10.6664C7.79477 10.5822 7.74563 10.5013 7.71754 10.4238C7.68946 10.3468 7.67542 10.2662 7.67542 10.182C7.67542 10.0977 7.68946 10.0168 7.71754 9.93933C7.74563 9.86238 7.79477 9.78177 7.86499 9.69752L11.5721 6.01143C11.6564 5.91313 11.7547 5.86398 11.867 5.86398C11.9794 5.86398 12.0777 5.91313 12.1619 6.01143C12.2602 6.09568 12.3094 6.19398 12.3094 6.30631C12.3094 6.41865 12.2602 6.51695 12.1619 6.6012L8.58114 10.182L12.1619 13.7628C12.2602 13.847 12.3094 13.9453 12.3094 14.0576C12.3094 14.17 12.2602 14.2683 12.1619 14.3525C12.0777 14.4508 11.9794 14.5 11.867 14.5C11.7547 14.5 11.6564 14.4508 11.5721 14.3525Z" fill="#131316"/>
</g>
</svg>
