<svg width="21" height="21" viewBox="0 0 21 21" fill="none" xmlns="http://www.w3.org/2000/svg">
<mask id="mask0_14706_1297" style="mask-type:alpha" maskUnits="userSpaceOnUse" x="0" y="0" width="21" height="21">
<rect width="20.2209" height="20.2209" transform="matrix(-1 0 0 1 20.9285 0.0715637)" fill="#D9D9D9"/>
</mask>
<g mask="url(#mask0_14706_1297)">
<path d="M9.42786 14.3525L13.135 10.6664C13.2052 10.5822 13.2544 10.5013 13.2825 10.4238C13.3105 10.3468 13.3246 10.2662 13.3246 10.182C13.3246 10.0977 13.3105 10.0168 13.2825 9.93933C13.2544 9.86238 13.2052 9.78177 13.135 9.69752L9.42786 6.01143C9.3436 5.91313 9.24531 5.86398 9.13297 5.86398C9.02063 5.86398 8.92233 5.91313 8.83808 6.01143C8.73979 6.09568 8.69064 6.19398 8.69064 6.30631C8.69064 6.41865 8.73979 6.51695 8.83808 6.6012L12.4189 10.182L8.83808 13.7628C8.73979 13.847 8.69064 13.9453 8.69064 14.0576C8.69064 14.17 8.73979 14.2683 8.83808 14.3525C8.92233 14.4508 9.02063 14.5 9.13297 14.5C9.24531 14.5 9.3436 14.4508 9.42786 14.3525Z" fill="#131316"/>
</g>
</svg>
